<?xml version="1.0" standalone="no"?>
<!DOCTYPE svg PUBLIC "-//W3C//DTD SVG 20010904//EN" "http://www.w3.org/TR/2001/REC-SVG-20010904/DTD/svg10.dtd">
<!-- Created using Krita: https://krita.org -->
<svg xmlns="http://www.w3.org/2000/svg" 
    xmlns:xlink="http://www.w3.org/1999/xlink"
    xmlns:krita="http://krita.org/namespaces/svg/krita"
    xmlns:sodipodi="http://sodipodi.sourceforge.net/DTD/sodipodi-0.dtd"
    width="66pt"
    height="56.25pt"
    viewBox="0 0 66 56.25">
<defs>
  <linearGradient id="gradient0" gradientUnits="objectBoundingBox" x1="0.496743617928444" y1="0.32947826807402" x2="0.496743617928444" y2="1.44980946163149" spreadMethod="pad">
   <stop stop-color="#ffffff" offset="0" stop-opacity="1"/>
   <stop stop-color="#6b6a7b" offset="1" stop-opacity="1"/>
  </linearGradient>
 </defs>
<path id="shape0" transform="translate(3.56989383344881, 4.07297329322272)" fill="url(#gradient0)" fill-rule="evenodd" stroke="#1a1a1a" stroke-width="3.75" stroke-linecap="square" stroke-linejoin="bevel" d="M13.1494 1.0415C23.0605 -0.631906 38.0544 -0.030208 46.4982 1.0415C54.9421 2.1132 57.4591 4.68843 58.7158 12.7935C59.9726 20.8986 59.6322 29.9646 58.7158 36.6607C57.7995 43.3568 57.7498 47.7646 46.4982 48.4127C35.2467 49.0609 20.2475 49.5233 13.1494 48.4127C6.05139 47.3021 1.91916 43.4105 0.931878 36.6607C-0.0554011 29.9109 -0.54223 20.938 0.931878 12.7935C2.40599 4.64901 3.23832 2.7149 13.1494 1.0415Z" sodipodi:nodetypes="czzzzzzzz"/><path id="shape1" transform="translate(23.3203, 16.4062)" fill="#1a1a1a" fill-rule="evenodd" stroke-opacity="0" stroke="#000000" stroke-width="0" stroke-linecap="square" stroke-linejoin="bevel" d="M0 20.3438L4.9688 20.3438L5.9531 15.7969L13.3125 15.8438L14.1563 20.2969L19.3594 20.3438L12.4688 0L6.6563 0.0938L0 20.3438M6.586 12.0938L12.6094 12.1641L10.3125 3.9141L8.8594 3.9141L8.8324 3.9959L8.761 4.2413L8.6449 4.6503L8.4844 5.2229L8.2793 5.959L8.0297 6.8588L7.7356 7.9222L7.3969 9.1491L7.0137 10.5397L6.586 12.0938" sodipodi:nodetypes="ccccccccccccccccccccccc"/>
</svg>
