<?xml version="1.0" encoding="UTF-8" standalone="no"?>
<!-- Created using Krita: https://krita.org -->

<svg
   width="86.25pt"
   height="36pt"
   viewBox="0 0 86.25 36"
   version="1.1"
   id="svg2"
   sodipodi:docname="select.svg"
   inkscape:version="1.3.2 (091e20ef0f, 2023-11-25, custom)"
   xmlns:inkscape="http://www.inkscape.org/namespaces/inkscape"
   xmlns:sodipodi="http://sodipodi.sourceforge.net/DTD/sodipodi-0.dtd"
   xmlns="http://www.w3.org/2000/svg"
   xmlns:svg="http://www.w3.org/2000/svg">
  <sodipodi:namedview
     id="namedview2"
     pagecolor="#ffffff"
     bordercolor="#000000"
     borderopacity="0.25"
     inkscape:showpageshadow="2"
     inkscape:pageopacity="0.0"
     inkscape:pagecheckerboard="0"
     inkscape:deskcolor="#d1d1d1"
     inkscape:document-units="pt"
     inkscape:zoom="5.7391305"
     inkscape:cx="53.143939"
     inkscape:cy="2.0909091"
     inkscape:window-width="1920"
     inkscape:window-height="1054"
     inkscape:window-x="0"
     inkscape:window-y="0"
     inkscape:window-maximized="1"
     inkscape:current-layer="svg2" />
  <defs
     id="defs2">
    <linearGradient
       id="gradient0"
       gradientUnits="objectBoundingBox"
       x1="0.539153052828468"
       y1="0.255142265026474"
       x2="0.547373717588806"
       y2="1.33978792919764"
       spreadMethod="pad">
      <stop
         stop-color="#ffffff"
         offset="0"
         stop-opacity="1"
         id="stop1" />
      <stop
         stop-color="#6b6a7b"
         offset="0.736111111111111"
         stop-opacity="1"
         id="stop2" />
    </linearGradient>
  </defs>
  <path
     id="shape0"
     transform="matrix(0.999998626162515 -0.00165761065474378 0.00165761065474378 0.999998626162515 3.63553389664109 2.94808140438866)"
     fill="#a6a6a6"
     fill-opacity="0.207843137254902"
     fill-rule="evenodd"
     stroke="#e6e6e6"
     stroke-width="3.75"
     stroke-linecap="square"
     stroke-linejoin="bevel"
     d="M6.37042 0.585956C21.4378 -0.178061 56.1468 -0.212388 72.5579 0.585956C75.5092 0.585956 77.9017 2.97843 77.9017 5.92971C79.0658 12.1841 78.987 18.3003 77.9017 24.3047C77.9017 27.256 75.5092 29.6485 72.5579 29.6485C56.7093 30.7354 23.2191 31.0613 6.37042 29.6485C3.41915 29.6485 1.02667 27.256 1.02667 24.3047C0.0525171 20.0992 -0.687788 13.098 1.02667 5.92971C1.02667 2.97843 3.41915 0.585956 6.37042 0.585956Z"
     sodipodi:nodetypes="ccccccccc" />
  <path
     id="shape01"
     transform="matrix(0.999998626162515 -0.00165761065474378 0.00165761065474378 0.999998626162515 3.72695904804938 2.77036682684388)"
     fill="none"
     stroke="url(#gradient0)"
     stroke-width="2.25"
     stroke-linecap="square"
     stroke-linejoin="bevel"
     d="M6.37042 0.585956C21.4378 -0.178061 56.1468 -0.212388 72.5579 0.585956C75.5092 0.585956 77.9017 2.97843 77.9017 5.92971C79.0658 12.1841 78.987 18.3003 77.9017 24.3047C77.9017 27.256 75.5092 29.6485 72.5579 29.6485C56.7093 30.7354 23.2191 31.0613 6.37042 29.6485C3.41915 29.6485 1.02667 27.256 1.02667 24.3047C0.0525175 20.0992 -0.687788 13.098 1.02667 5.92971C1.02667 2.97843 3.41915 0.585956 6.37042 0.585956Z"
     sodipodi:nodetypes="ccccccccc" />
  <rect
     style="fill:#b2b2b2;stroke-width:2.125;fill-opacity:1"
     id="rect1"
     width="20.421726"
     height="6.7456379"
     x="32.526913"
     y="14.415336" />
</svg>
