<?xml version="1.0" standalone="no"?>
<!DOCTYPE svg PUBLIC "-//W3C//DTD SVG 20010904//EN" "http://www.w3.org/TR/2001/REC-SVG-20010904/DTD/svg10.dtd">
<!-- Created using Krita: https://krita.org -->
<svg xmlns="http://www.w3.org/2000/svg" 
    xmlns:xlink="http://www.w3.org/1999/xlink"
    xmlns:krita="http://krita.org/namespaces/svg/krita"
    xmlns:sodipodi="http://sodipodi.sourceforge.net/DTD/sodipodi-0.dtd"
    width="66pt"
    height="56.25pt"
    viewBox="0 0 66 56.25">
<defs>
  <linearGradient id="gradient0" gradientUnits="objectBoundingBox" x1="0.496743617928444" y1="0.297962964355633" x2="0.496743617928444" y2="1.52430021612578" spreadMethod="pad">
   <stop stop-color="#ffffff" offset="0" stop-opacity="1"/>
   <stop stop-color="#6b6a7b" offset="1" stop-opacity="1"/>
  </linearGradient>
 </defs>
<path id="shape0" transform="translate(3.68484080135168, 4.07297329322272)" fill="url(#gradient0)" fill-rule="evenodd" stroke="#1a1a1a" stroke-width="3.75" stroke-linecap="square" stroke-linejoin="bevel" d="M13.0345 1.0415C22.9456 -0.631906 37.9395 -0.030208 46.3833 1.0415C54.8272 2.1132 57.819 4.68845 58.6009 12.7935C59.3828 20.8986 59.2557 29.9647 58.6009 36.6607C57.9461 43.3567 57.6349 47.7646 46.3833 48.4127C35.1318 49.0609 20.1326 49.5233 13.0345 48.4127C5.93644 47.3021 1.94692 43.507 0.816931 36.6607C-0.313054 29.8144 -0.23079 21.0056 0.816931 12.7935C1.86465 4.58142 3.12337 2.7149 13.0345 1.0415Z" sodipodi:nodetypes="czzzzzzzz"/><path id="shape1" transform="translate(24.0469, 16.5)" fill="#1a1a1a" fill-rule="evenodd" stroke-opacity="0" stroke="#000000" stroke-width="0" stroke-linecap="square" stroke-linejoin="bevel" d="M0 0.1406L5.6642 9L11.4283 9L17.2499 0.0469L12.7968 0.0469L12.7769 0.0765L12.717 0.1653L12.6171 0.3134L12.4773 0.5206L12.2976 0.7871L12.0779 1.1128L11.8183 1.4977L11.5187 1.9418L11.1792 2.4452L10.7998 3.0078L10.3804 3.6295L9.9211 4.3106L9.4218 5.0508L8.8826 5.8502L8.5727 6.3098L4.3125 0L0 0.1406" sodipodi:nodetypes="cccccccccccccccccccccc"/><rect id="shape2" transform="translate(30.0937510477378, 25.5)" fill="#1a1a1a" fill-rule="evenodd" stroke-opacity="0" stroke="#000000" stroke-width="0" stroke-linecap="square" stroke-linejoin="bevel" width="5.06249790452444" height="11.1679686844329"/>
</svg>
